<svg width="196" height="23" viewBox="0 0 196 23" fill="none" xmlns="http://www.w3.org/2000/svg">
<g id="&#208;&#155;&#208;&#190;&#208;&#179;&#208;&#190;&#209;&#130;&#208;&#184;&#208;&#191;3" clip-path="url(#clip0_192_1895)">
<g id="&#208;&#161;&#208;&#187;&#208;&#190;&#208;&#185;_x0020_1">
<path id="Vector" d="M143.758 11.5106C143.776 15.7452 147.063 17.8804 150.313 17.8626C153.033 17.8626 155.9 16.4746 156.375 12.9517C155.261 12.9517 154.257 12.9517 153.161 12.9517C152.814 14.2864 151.7 14.9623 150.313 14.9623C148.377 14.9445 147.136 13.3432 147.136 11.5106C147.136 9.44667 148.396 8.04092 150.313 8.04092C151.682 8.04092 152.65 8.61029 153.106 9.87355C154.22 9.87355 155.206 9.87355 156.32 9.87355C155.827 6.54636 152.96 5.14062 150.313 5.14062C147.063 5.14062 143.776 7.27598 143.758 11.5106ZM169.521 5.28291C168.407 5.28291 167.293 5.28291 166.18 5.28291V9.80231H162.236V5.28291C161.122 5.28291 159.99 5.28291 158.894 5.28291V17.7381C159.99 17.7381 161.122 17.7381 162.236 17.7381V12.7383H166.18V17.7381C167.293 17.7381 168.407 17.7381 169.521 17.7381V5.28291ZM180.914 17.7381H184.11V17.2753L178.34 5.12305H176.934L171.182 17.2753V17.7381H174.378L175.126 16.1723H180.166L180.914 17.7381ZM179.107 13.45H176.185L177.628 10.1761L179.107 13.45ZM191.395 12.4535C193.184 12.4535 193.203 14.8913 191.395 14.8913C190.628 14.8913 189.806 14.8913 189.058 14.8913V12.4535H191.395ZM189.058 9.64225V8.12993H194.974V5.28291H185.789V17.7381H191.413C197.53 17.7203 197.53 9.64225 191.413 9.64225H189.058Z" fill="#FEFEFE"/>
<path id="Vector_2" d="M6.20791 10.6213L1.20501 5.21219H0V17.7027C1.11367 17.7027 2.22754 17.7027 3.34121 17.7027V12.1513L6.04346 14.9271H6.40881L9.12929 12.1513V17.7027C10.2432 17.7027 11.3568 17.7027 12.4707 17.7027V5.21219H11.3021L6.20791 10.6213ZM23.6999 5.24772C20.7054 5.24772 18.6786 5.24772 15.7208 5.24772C15.7208 9.37575 15.7208 13.5393 15.7208 17.7027C18.6786 17.7027 20.8697 17.7027 23.8642 17.7027C23.8642 16.7597 23.8642 15.799 23.8642 14.8736C21.9471 14.8736 20.8515 14.8736 18.9708 14.8736C18.9708 14.1264 18.9708 13.4146 18.9708 12.685H23.3164C23.3164 11.742 23.3164 10.7991 23.3164 9.85611H18.9708V8.09473C20.8515 8.09473 21.8011 8.09473 23.6999 8.09473C23.6999 7.13363 23.6999 6.17291 23.6999 5.24772ZM29.999 8.09473H34.6367C34.6367 7.02705 34.6367 6.29763 34.6367 5.24772C32.0258 5.24772 29.2871 5.24772 26.6762 5.24772V17.7027C27.7899 17.7027 28.9037 17.7027 29.999 17.7027V8.09473ZM43.9124 17.7027H47.1076V17.2401L41.338 5.08766H39.9319L34.1804 17.2401V17.7027H37.3758L38.1243 16.1371H43.1637L43.9124 17.7027ZM42.1047 13.4146H39.1833L40.6259 10.1407L42.1047 13.4146ZM59.4323 5.24772C51.0333 5.24772 49.9014 5.24772 48.8058 5.24772V17.7027C49.9014 17.7027 51.0333 17.7027 52.147 17.7027V8.18355H56.0911V17.7027C57.2048 17.7027 58.3186 17.7027 59.4323 17.7027V5.24772ZM75.0255 11.493C75.0255 2.88125 61.9154 2.88125 61.9154 11.493C61.9154 20.1224 75.0255 20.1224 75.0255 11.493ZM65.2752 11.493C65.2752 7.00929 71.6841 7.00929 71.6841 11.493C71.6841 16.0124 65.2752 16.0124 65.2752 11.493ZM82.3288 10.4077L85.6153 17.7027H88.8107V17.2401L83.0411 5.08766H81.635L75.8834 17.2401V17.7027H79.0789L82.3288 10.4077ZM98.1227 11.582V17.7027C99.2546 17.7027 100.387 17.7027 101.501 17.7027V5.19443H100.314L93.8501 11.3419V5.24772C92.7362 5.24772 91.6225 5.24772 90.5087 5.24772V17.7027H91.6772L98.1227 11.582ZM104.002 11.4754C104.02 15.71 107.307 17.845 110.557 17.8274C113.278 17.8274 116.144 16.4394 116.619 12.9165C115.505 12.9165 114.501 12.9165 113.405 12.9165C113.058 14.251 111.945 14.9271 110.557 14.9271C108.621 14.9093 107.38 13.308 107.38 11.4754C107.38 9.41128 108.64 8.00573 110.557 8.00573C111.926 8.00573 112.894 8.57509 113.351 9.83835C114.464 9.83835 115.45 9.83835 116.564 9.83835C116.071 6.51098 113.204 5.10542 110.557 5.10542C107.307 5.10542 104.02 7.24059 104.002 11.4754Z" fill="#FEFEFE"/>
<path id="Vector_3" fill-rule="evenodd" clip-rule="evenodd" d="M130.188 0L140.163 4.20196L130.188 8.30899L120.213 4.20196L130.188 0Z" fill="#FEFEFE"/>
<path id="Vector_4" fill-rule="evenodd" clip-rule="evenodd" d="M140.781 17.833L140.773 11.9024L138.433 12.8679V18.7942L140.781 17.833ZM137.71 13.1664L130.794 16.0212L130.799 21.9196L137.71 19.09V13.1664ZM140.772 11.1374L140.764 5.2373L134.579 7.78388V13.6937L140.772 11.1374ZM133.856 8.08165L130.789 9.34414L130.794 15.2561L133.856 13.9921V8.08165Z" fill="#FEFEFE"/>
<path id="Vector_5" fill-rule="evenodd" clip-rule="evenodd" d="M126.727 21.4125L126.743 8.15625L129.578 9.32344V22.4139L128.157 23L126.727 21.4125Z" fill="#004985"/>
<path id="Vector_6" fill-rule="evenodd" clip-rule="evenodd" d="M123.16 19.9527L123.177 6.69629L126.011 7.86348V20.9539L124.59 21.5401L123.16 19.9527Z" fill="#004985"/>
<path id="Vector_7" fill-rule="evenodd" clip-rule="evenodd" d="M119.596 18.4935L119.612 5.2373L122.447 6.4043V19.4949L121.026 20.0811L119.596 18.4935Z" fill="#004985"/>
</g>
</g>
<defs>
<clipPath id="clip0_192_1895">
<rect width="196" height="23" fill="white"/>
</clipPath>
</defs>
</svg>
