<svg width="306" height="37" viewBox="0 0 306 37" fill="none" xmlns="http://www.w3.org/2000/svg">
<g clip-path="url(#clip0_53_1353)">
<path d="M224.438 18.518C224.466 25.3303 229.597 28.7651 234.671 28.7365C238.919 28.7365 243.394 26.5037 244.135 20.8363C242.396 20.8363 240.828 20.8363 239.118 20.8363C238.576 22.9834 236.838 24.0708 234.671 24.0708C231.649 24.0422 229.711 21.4662 229.711 18.518C229.711 15.1978 231.678 12.9364 234.671 12.9364C236.809 12.9364 238.32 13.8523 239.032 15.8845C240.771 15.8845 242.311 15.8845 244.05 15.8845C243.28 10.5321 238.805 8.2707 234.671 8.2707C229.597 8.2707 224.466 11.7058 224.438 18.518ZM264.659 8.49961C262.921 8.49961 261.182 8.49961 259.443 8.49961V15.7699H253.285V8.49961C251.547 8.49961 249.78 8.49961 248.069 8.49961V28.5362C249.78 28.5362 251.547 28.5362 253.285 28.5362V20.4931H259.443V28.5362C261.182 28.5362 262.921 28.5362 264.659 28.5362V8.49961ZM282.447 28.5362H287.436V27.7917L278.428 8.24243H276.233L267.253 27.7917V28.5362H272.242L273.411 26.0173H281.278L282.447 28.5362ZM279.625 21.6379H275.064L277.316 16.3712L279.625 21.6379ZM298.81 20.035C301.603 20.035 301.632 23.9565 298.81 23.9565C297.612 23.9565 296.33 23.9565 295.161 23.9565V20.035H298.81ZM295.161 15.5125V13.0796H304.397V8.49961H290.058V28.5362H298.838C308.388 28.5076 308.388 15.5125 298.838 15.5125H295.161Z" fill="#004985"/>
<path d="M9.69194 17.087L1.88129 8.38549H0V28.4789C1.73869 28.4789 3.47769 28.4789 5.21638 28.4789V19.5485L9.4352 24.0138H10.0056L14.2529 19.5485V28.4789C15.9919 28.4789 17.7306 28.4789 19.4696 28.4789V8.38549H17.6452L9.69194 17.087ZM37.0009 8.44263C32.3258 8.44263 29.1615 8.44263 24.5436 8.44263C24.5436 15.0834 24.5436 21.7813 24.5436 28.4789C29.1615 28.4789 32.5823 28.4789 37.2573 28.4789C37.2573 26.962 37.2573 25.4165 37.2573 23.9278C34.2644 23.9278 32.5538 23.9278 29.6177 23.9278C29.6177 22.7258 29.6177 21.5807 29.6177 20.4069H36.4021C36.4021 18.89 36.4021 17.3731 36.4021 15.8561H29.6177V13.0226C32.5538 13.0226 34.0364 13.0226 37.0009 13.0226C37.0009 11.4765 37.0009 9.93099 37.0009 8.44263ZM46.8351 13.0226H54.0757C54.0757 11.305 54.0757 10.1316 54.0757 8.44263C49.9995 8.44263 45.7237 8.44263 41.6475 8.44263V28.4789C43.3862 28.4789 45.1252 28.4789 46.8351 28.4789V13.0226ZM68.5572 28.4789H73.5456V27.7347L64.5378 8.18515H62.3426L53.3633 27.7347V28.4789H58.3521L59.5207 25.9603H67.3882L68.5572 28.4789ZM65.7349 21.5807H61.174L63.4262 16.314L65.7349 21.5807ZM92.7872 8.44263C79.6744 8.44263 77.9073 8.44263 76.1968 8.44263V28.4789C77.9073 28.4789 79.6744 28.4789 81.4131 28.4789V13.1655H87.5708V28.4789C89.3095 28.4789 91.0485 28.4789 92.7872 28.4789V8.44263ZM117.132 18.4893C117.132 4.63571 96.6639 4.63571 96.6639 18.4893C96.6639 32.3716 117.132 32.3716 117.132 18.4893ZM101.909 18.4893C101.909 11.2765 111.915 11.2765 111.915 18.4893C111.915 25.7597 101.909 25.7597 101.909 18.4893ZM128.534 16.7435L133.665 28.4789H138.654V27.7347L129.646 8.18515H127.451L118.471 27.7347V28.4789H123.46L128.534 16.7435ZM153.192 18.6325V28.4789C154.959 28.4789 156.726 28.4789 158.465 28.4789V8.35691H156.612L146.521 18.2463V8.44263C144.782 8.44263 143.043 8.44263 141.304 8.44263V28.4789H143.129L153.192 18.6325ZM162.371 18.4611C162.399 25.2733 167.53 28.7078 172.604 28.6795C176.852 28.6795 181.327 26.4467 182.068 20.7793C180.329 20.7793 178.762 20.7793 177.051 20.7793C176.509 22.9261 174.771 24.0138 172.604 24.0138C169.582 23.9853 167.644 21.4092 167.644 18.4611C167.644 15.1405 169.611 12.8794 172.604 12.8794C174.742 12.8794 176.253 13.7954 176.966 15.8276C178.704 15.8276 180.244 15.8276 181.983 15.8276C181.213 10.4748 176.738 8.21373 172.604 8.21373C167.53 8.21373 162.399 11.6486 162.371 18.4611Z" fill="#004985"/>
<path fill-rule="evenodd" clip-rule="evenodd" d="M203.253 0L218.826 6.75967L203.253 13.3666L187.68 6.75967L203.253 0Z" fill="#004985"/>
<path fill-rule="evenodd" clip-rule="evenodd" d="M219.79 28.6875L219.778 19.1469L216.126 20.7001V30.2336L219.79 28.6875ZM214.997 21.1803L204.2 25.7729L204.207 35.2616L214.997 30.7096V21.1803ZM219.777 17.9163L219.765 8.4248L210.109 12.5215V22.0286L219.777 17.9163ZM208.979 13.0005L204.191 15.0315L204.199 24.542L208.979 22.5086V13.0005Z" fill="#004985"/>
<path fill-rule="evenodd" clip-rule="evenodd" d="M197.848 34.4461L197.874 13.1208L202.299 14.9985V36.057L200.08 37L197.848 34.4461Z" fill="#0096D6"/>
<path fill-rule="evenodd" clip-rule="evenodd" d="M192.281 32.098L192.307 10.7725L196.732 12.6501V33.7086L194.514 34.6516L192.281 32.098Z" fill="#0096D6"/>
<path fill-rule="evenodd" clip-rule="evenodd" d="M186.715 29.75L186.741 8.4248L191.166 10.3021V31.361L188.948 32.3039L186.715 29.75Z" fill="#0096D6"/>
</g>
<defs>
<clipPath id="clip0_53_1353">
<rect width="306" height="37" fill="white"/>
</clipPath>
</defs>
</svg>
