<svg width="32" height="32" viewBox="0 0 32 32" fill="none" xmlns="http://www.w3.org/2000/svg">
<path d="M1.5 21L4.2875 11.7125C4.34955 11.5058 4.47683 11.3247 4.65031 11.1963C4.82379 11.0678 5.03416 10.999 5.25 11H12.75C12.9658 10.999 13.1762 11.0678 13.3497 11.1963C13.5232 11.3247 13.6504 11.5058 13.7125 11.7125L16.5 21" stroke="#8FBF2D" stroke-width="2" stroke-linecap="round" stroke-linejoin="round"/>
<path d="M18.5 11H19.75C19.9658 10.999 20.1762 11.0678 20.3497 11.1963C20.5232 11.3247 20.6504 11.5058 20.7125 11.7125L23.5 21" stroke="#8FBF2D" stroke-width="2" stroke-linecap="round" stroke-linejoin="round"/>
<path d="M25.5 11H26.75C26.9658 10.999 27.1762 11.0678 27.3497 11.1963C27.5232 11.3247 27.6504 11.5058 27.7125 11.7125L30.5 21" stroke="#8FBF2D" stroke-width="2" stroke-linecap="round" stroke-linejoin="round"/>
<path d="M1.5 21H30.5" stroke="#8FBF2D" stroke-width="2" stroke-linecap="round" stroke-linejoin="round"/>
</svg>
