<svg width="32" height="32" viewBox="0 0 32 32" fill="none" xmlns="http://www.w3.org/2000/svg">
<path d="M22 10H27.325C27.5242 9.99872 27.7192 10.0577 27.8843 10.1693C28.0494 10.2808 28.1769 10.4397 28.25 10.625L30 15" stroke="#8FBF2D" stroke-width="3" stroke-linecap="round" stroke-linejoin="round"/>
<path d="M2 18H22" stroke="#8FBF2D" stroke-width="3" stroke-linecap="round" stroke-linejoin="round"/>
<path d="M22.5 27C24.1569 27 25.5 25.6569 25.5 24C25.5 22.3431 24.1569 21 22.5 21C20.8431 21 19.5 22.3431 19.5 24C19.5 25.6569 20.8431 27 22.5 27Z" stroke="#8FBF2D" stroke-width="3" stroke-linecap="round" stroke-linejoin="round"/>
<path d="M9.5 27C11.1569 27 12.5 25.6569 12.5 24C12.5 22.3431 11.1569 21 9.5 21C7.84315 21 6.5 22.3431 6.5 24C6.5 25.6569 7.84315 27 9.5 27Z" stroke="#8FBF2D" stroke-width="3" stroke-linecap="round" stroke-linejoin="round"/>
<path d="M19.5 24H12.5" stroke="#8FBF2D" stroke-width="3" stroke-linecap="round" stroke-linejoin="round"/>
<path d="M6.5 24H3C2.73478 24 2.48043 23.8946 2.29289 23.7071C2.10536 23.5196 2 23.2652 2 23V9C2 8.73478 2.10536 8.48043 2.29289 8.29289C2.48043 8.10536 2.73478 8 3 8H22V21.0375" stroke="#8FBF2D" stroke-width="3" stroke-linecap="round" stroke-linejoin="round"/>
<path d="M22 15H30V23C30 23.2652 29.8946 23.5196 29.7071 23.7071C29.5196 23.8946 29.2652 24 29 24H25.5" stroke="#8FBF2D" stroke-width="3" stroke-linecap="round" stroke-linejoin="round"/>
</svg>
