<svg width="32" height="32" viewBox="0 0 32 32" fill="none" xmlns="http://www.w3.org/2000/svg">
<path fill-rule="evenodd" clip-rule="evenodd" d="M16 32C24.8366 32 32 24.8366 32 16C32 7.16344 24.8366 0 16 0C7.16344 0 0 7.16344 0 16C0 24.8366 7.16344 32 16 32Z" fill="#25D366"/>
<path fill-rule="evenodd" clip-rule="evenodd" d="M16.5272 24.9017H16.5232C14.9309 24.9012 13.3663 24.5016 11.9767 23.7437L6.93311 25.0667L8.28285 20.1366C7.45026 18.6937 7.01216 17.057 7.01287 15.3802C7.01496 10.1345 11.283 5.8667 16.5271 5.8667C19.0722 5.8678 21.461 6.85861 23.2572 8.65697C25.0535 10.4552 26.0422 12.8456 26.0412 15.3877C26.0391 20.6322 21.7728 24.8996 16.5272 24.9017ZM12.2103 22.0212L12.4991 22.1926C13.7132 22.9131 15.1049 23.2943 16.5239 23.2949H16.5271C20.8856 23.2949 24.433 19.7474 24.4348 15.3871C24.4356 13.2741 23.6138 11.2874 22.1208 9.79262C20.6279 8.29789 18.6424 7.47432 16.5302 7.47359C12.1683 7.47359 8.62092 11.0207 8.61919 15.3807C8.61857 16.8749 9.03665 18.33 9.82822 19.5891L10.0162 19.8882L9.21739 22.8063L12.2103 22.0212ZM21.3206 17.6501C21.2611 17.551 21.1027 17.4915 20.865 17.3724C20.6272 17.2535 19.4585 16.6784 19.2405 16.599C19.0227 16.5197 18.8641 16.4801 18.7057 16.718C18.5472 16.956 18.0916 17.4915 17.9529 17.6501C17.8143 17.8087 17.6756 17.8287 17.438 17.7096C17.2002 17.5906 16.4342 17.3396 15.5262 16.5297C14.8195 15.8993 14.3424 15.1209 14.2037 14.8829C14.065 14.6449 14.1889 14.5163 14.3079 14.3977C14.4149 14.2912 14.5457 14.12 14.6645 13.9812C14.7834 13.8425 14.823 13.7432 14.9023 13.5847C14.9815 13.426 14.9419 13.2872 14.8824 13.1682C14.823 13.0492 14.3476 11.879 14.1495 11.403C13.9565 10.9395 13.7605 11.0023 13.6146 10.995C13.4761 10.988 13.3175 10.9865 13.159 10.9865C13.0005 10.9865 12.743 11.046 12.5251 11.284C12.3072 11.522 11.693 12.0972 11.693 13.2672C11.693 14.4374 12.5449 15.5678 12.6637 15.7264C12.7826 15.8851 14.34 18.2862 16.7248 19.316C17.292 19.5609 17.7347 19.7072 18.08 19.8167C18.6495 19.9977 19.1678 19.9722 19.5773 19.9109C20.0341 19.8427 20.9838 19.3359 21.182 18.7806C21.38 18.2252 21.38 17.7493 21.3206 17.6501Z" fill="white"/>
</svg>
